<svg
   aria-hidden="true"
   focusable="false"
   data-icon="adjust"
   class="Icon"
   role="img"
   xmlns="http://www.w3.org/2000/svg"
   version="1.1"
   viewBox="0 0 135 135"
   width="512"
   weight="400">

	<path
		fill="currentColor"
		d="M 135.46619,67.735992
		A 67.724648,67.729912 0 0 1 67.942194,135.46561 67.724648,67.729912 0 0 1 0.01808803,68.137317 67.724648,67.729912 0 0 1 67.139611,0.00875589 67.724648,67.729912 0 0 1 135.46144,66.933357"
	/>
	<path
		fill="#ff8000"
		d="M 68.343895,5.6443155
		C 60.414365,5.1335114 52.817826,8.9170916 48.454043,15.557571 44.007202,22.434986 44.007202,29.453823 44.007202,39.894263
		v 59.796288
		c 0,8.755599 0.0043,30.160229 21.934712,30.160229 5.809851,0.26631 11.334188,-2.53095 14.555932,-7.37302
		l 1.376695,5.524
		h 9.584923
		V 63.562791
		H 65.941938
		v 14.72298
		h 9.774997
		v 27.395339
		c 0,3.61825 -0.191276,10.80033 -8.064232,10.80033 -7.871755,0 -7.874158,-6.6842 -7.874158,-14.55596
		V 32.3542
		c 0,-5.993575 0.0049,-13.369337 8.069995,-13.369337 7.015526,0 7.344226,5.494223 7.344226,12.344026
		v 13.536384
		h 14.75177
		v -12.67812
		c 0,-8.921319 -0.0016,-26.5428375 -21.600641,-26.5428375 z"
	/>
</svg>
