<svg
   aria-hidden="true"
   focusable="false"
   data-icon="adjust"
   class="Logo"
   role="img"
   xmlns="http://www.w3.org/2000/svg"
   version="1.1"
   viewBox="0 0 400 37.5"
   width="400"
   weight="400">

    <path
        fill="currentColor"
        d="
        M16.376 0.405
        C 16.167 0.628,15.866 0.811,15.708 0.811
        C 15.386 0.811,13.428 3.207,13.496 3.518
        C 13.520 3.624,15.764 5.549,18.484 7.796
        C 21.204 10.042,23.637 12.054,23.890 12.266
        L 24.351 12.651 24.009 13.779
        C 23.639 14.997,23.360 15.094,22.492 14.308
        C 22.128 13.979,22.564 13.516,17.621 19.486
        C 12.812 25.295,13.084 24.893,13.666 25.321
        C 13.940 25.523,14.087 25.757,14.041 25.919
        C 13.967 26.183,16.312 28.212,16.691 28.212
        C 16.783 28.212,18.258 26.534,19.968 24.483
        C 21.678 22.432,23.108 20.784,23.145 20.821
        C 23.363 21.039,22.002 25.091,21.139 26.793
        C 20.772 27.518,20.710 27.564,20.103 27.564
        L 19.457 27.564 19.457 29.091
        C 19.457 29.963,19.526 30.641,19.619 30.672
        C 19.718 30.705,19.607 31.561,19.335 32.874
        L 18.890 35.022 10.060 35.022
        L 1.230 35.022 1.946 34.292
        C 2.582 33.645,2.635 33.535,2.421 33.320
        C 2.206 33.105,2.051 33.207,1.052 34.214
        L -0.075 35.349 1.014 36.439
        C 2.045 37.469,2.119 37.513,2.383 37.249
        C 2.647 36.985,2.628 36.935,2.028 36.320
        L 1.393 35.671 10.412 35.671
        L 19.431 35.671 19.675 34.576
        C 20.477 30.988,20.630 30.090,20.452 30.030
        C 19.987 29.875,20.238 28.375,20.729 28.375
        C 21.706 28.375,23.626 23.238,24.087 19.393
        C 24.235 18.159,24.484 17.925,20.267 22.992
        L 16.631 27.361 15.802 26.692
        C 15.260 26.256,14.996 25.930,15.041 25.754
        C 15.082 25.590,14.940 25.372,14.681 25.203
        C 14.102 24.823,13.922 25.089,18.340 19.789
        L 22.265 15.080 22.807 15.493
        C 23.105 15.720,23.348 15.857,23.348 15.797
        C 23.348 15.737,23.461 15.781,23.598 15.895
        C 23.747 16.019,23.906 16.043,23.990 15.956
        C 24.201 15.735,25.168 12.513,25.070 12.354
        C 25.023 12.279,22.611 10.255,19.708 7.857
        C 16.805 5.458,14.430 3.450,14.430 3.393
        C 14.430 3.136,15.614 1.773,15.782 1.836
        C 15.886 1.874,16.190 1.701,16.457 1.450
        L 16.944 0.994 21.635 4.872
        C 24.216 7.006,26.400 8.824,26.489 8.913
        C 26.598 9.022,26.534 9.201,26.297 9.453
        C 26.102 9.661,25.942 9.909,25.942 10.005
        C 25.942 10.101,25.841 10.219,25.716 10.267
        C 25.592 10.315,25.287 10.620,25.040 10.945
        L 24.589 11.536 25.063 11.923
        C 25.496 12.277,25.688 12.312,27.266 12.317
        L 28.994 12.323 33.408 7.013
        C 35.835 4.092,37.946 1.571,38.098 1.409
        C 38.423 1.064,40.125 2.208,39.953 2.656
        C 39.905 2.781,40.076 3.049,40.342 3.264
        L 40.817 3.648 36.825 8.464
        C 32.654 13.495,32.657 13.493,32.185 12.971
        C 32.023 12.793,31.842 12.647,31.781 12.647
        C 31.720 12.647,31.357 12.349,30.973 11.984
        C 30.283 11.328,30.274 11.324,29.961 11.637
        C 29.649 11.949,29.652 11.970,30.226 13.811
        C 30.546 14.833,30.811 15.956,30.816 16.307
        C 30.826 16.942,30.838 16.954,35.747 20.993
        L 40.668 25.041 40.018 25.857
        C 39.606 26.374,39.264 26.655,39.083 26.625
        C 38.920 26.599,38.681 26.756,38.527 26.990
        C 38.151 27.565,38.329 27.671,34.855 24.807
        C 33.124 23.381,31.650 22.213,31.578 22.213
        C 31.070 22.213,33.375 28.088,33.974 28.318
        C 34.329 28.454,34.308 29.996,33.951 29.996
        C 33.763 29.996,33.714 30.098,33.777 30.361
        C 33.825 30.561,34.101 31.838,34.391 33.198
        L 34.917 35.671 39.591 35.671
        L 44.264 35.671 44.264 22.963
        C 44.264 10.676,44.301 9.242,44.612 9.242
        C 44.692 9.242,44.713 9.418,44.659 9.633
        C 44.562 10.018,44.572 10.022,45.264 9.867
        C 46.947 9.491,47.753 8.392,48.154 5.927
        C 48.656 2.843,51.104 3.100,51.753 6.306
        C 52.201 8.519,53.096 9.571,54.864 9.965
        C 55.301 10.063,55.323 10.043,55.222 9.642
        C 55.152 9.364,55.174 9.251,55.283 9.319
        C 55.398 9.390,55.452 13.636,55.452 22.547
        L 55.452 35.671 57.073 35.671
        L 58.695 35.671 58.697 22.659
        C 58.699 13.715,58.754 9.571,58.873 9.404
        C 59.006 9.217,59.023 9.262,58.949 9.603
        C 58.856 10.028,58.874 10.041,59.382 9.945
        C 61.208 9.598,62.265 8.228,62.524 5.874
        C 62.792 3.447,65.991 3.143,65.991 5.544
        C 65.991 7.724,67.352 9.593,69.196 9.945
        C 69.704 10.041,69.721 10.028,69.628 9.603
        C 69.554 9.262,69.571 9.217,69.705 9.404
        C 69.823 9.571,69.878 13.715,69.880 22.659
        L 69.882 35.671 71.585 35.671
        L 73.287 35.671 73.287 25.942
        L 73.287 16.214 73.855 16.214
        L 74.422 16.214 74.422 14.998
        L 74.422 13.782 74.990 13.782
        L 75.557 13.782 75.557 12.647
        L 75.557 11.512 76.044 11.512
        L 76.530 11.512 76.530 10.377
        L 76.530 9.242 77.098 9.242
        L 77.665 9.242 77.665 8.107
        L 77.665 6.972 78.152 6.972
        L 78.638 6.972 78.638 5.999
        L 78.638 5.026 79.692 5.026
        L 80.746 5.026 80.746 3.810
        L 80.746 2.594 81.394 2.594
        L 82.043 2.594 82.043 3.810
        L 82.043 5.026 83.016 5.026
        L 83.989 5.026 83.989 5.999
        L 83.989 6.972 84.556 6.972
        L 85.124 6.972 85.124 8.107
        L 85.124 9.242 85.691 9.242
        L 86.259 9.242 86.259 10.377
        L 86.259 11.512 86.745 11.512
        L 87.231 11.512 87.231 12.647
        L 87.231 13.782 87.799 13.782
        L 88.366 13.782 88.366 14.998
        L 88.366 16.214 88.934 16.214
        L 89.501 16.214 89.501 25.942
        L 89.501 35.671 92.047 35.671
        L 94.594 35.671 93.959 36.320
        C 93.359 36.935,93.340 36.985,93.604 37.249
        C 93.868 37.513,93.942 37.469,94.973 36.439
        L 96.062 35.349 94.935 34.214
        C 93.936 33.207,93.781 33.105,93.566 33.320
        C 93.352 33.535,93.406 33.645,94.041 34.292
        L 94.757 35.022 92.454 35.022
        L 90.150 35.022 90.150 25.294
        L 90.150 15.565 89.582 15.565
        L 89.015 15.565 89.015 14.349
        L 89.015 13.133 88.448 13.133
        L 87.880 13.133 87.880 11.998
        L 87.880 10.863 87.394 10.863
        L 86.907 10.863 86.907 9.728
        L 86.907 8.593 86.340 8.593
        L 85.772 8.593 85.772 7.458
        L 85.772 6.323 85.286 6.323
        L 84.799 6.323 84.799 5.351
        L 84.799 4.378 83.745 4.378
        L 82.692 4.378 82.692 3.162
        L 82.692 1.946 81.394 1.946
        L 80.097 1.946 80.097 3.162
        L 80.097 4.378 79.043 4.378
        L 77.989 4.378 77.989 5.351
        L 77.989 6.323 77.503 6.323
        L 77.017 6.323 77.017 7.458
        L 77.017 8.593 76.449 8.593
        L 75.882 8.593 75.882 9.728
        L 75.882 10.863 75.314 10.863
        L 74.747 10.863 74.747 11.998
        L 74.747 13.133 74.260 13.133
        L 73.774 13.133 73.774 14.349
        L 73.774 15.565 73.125 15.565
        L 72.477 15.565 72.477 25.294
        L 72.477 35.022 71.504 35.022
        L 70.531 35.022 70.531 22.168
        C 70.531 10.797,70.502 9.273,70.279 8.954
        C 69.985 8.535,69.217 8.467,68.913 8.832
        C 68.190 9.703,66.206 6.302,66.795 5.201
        C 67.235 4.379,64.984 2.884,63.723 3.161
        C 62.915 3.339,61.495 4.800,61.744 5.199
        C 62.182 5.899,61.295 8.201,60.366 8.775
        C 59.841 9.099,59.777 9.107,59.640 8.862
        C 59.417 8.464,58.603 8.519,58.299 8.954
        C 58.075 9.273,58.046 10.797,58.046 22.168
        L 58.046 35.022 57.072 35.022
        L 56.097 35.022 56.102 22.128
        C 56.106 13.364,56.053 9.132,55.936 8.914
        C 55.727 8.523,55.025 8.489,54.627 8.850
        C 53.799 9.599,52.179 7.033,52.440 5.385
        C 52.603 4.364,51.260 3.167,49.952 3.167
        C 48.588 3.167,47.316 4.235,47.439 5.277
        C 47.649 7.045,45.984 9.736,45.237 8.837
        C 44.968 8.512,44.197 8.527,43.919 8.861
        C 43.736 9.083,43.689 11.390,43.653 22.076
        L 43.608 35.022 39.562 35.022
        L 35.515 35.022 35.410 34.605
        C 34.984 32.909,34.598 30.716,34.717 30.672
        C 35.054 30.545,34.883 27.564,34.539 27.564
        C 34.201 27.564,33.717 26.756,33.070 25.114
        C 32.592 23.903,32.664 23.935,35.236 26.075
        C 38.282 28.609,38.200 28.561,38.588 28.050
        C 38.758 27.827,39.041 27.645,39.217 27.645
        C 39.696 27.645,41.768 24.956,41.463 24.730
        C 37.790 22.006,31.455 16.404,31.455 15.881
        C 31.455 15.557,31.309 14.868,31.131 14.349
        C 30.953 13.831,30.807 13.341,30.807 13.261
        C 30.807 13.108,31.587 13.500,32.247 13.985
        C 32.460 14.141,32.696 14.268,32.771 14.268
        C 32.846 14.268,34.919 11.858,37.377 8.913
        L 41.846 3.558 41.361 3.149
        C 41.092 2.923,40.914 2.642,40.961 2.518
        C 41.036 2.323,38.550 0.168,38.246 0.164
        C 38.190 0.163,36.001 2.750,33.381 5.913
        L 28.618 11.664 27.226 11.669
        C 25.524 11.675,25.487 11.643,26.280 10.850
        C 26.630 10.501,26.915 10.117,26.915 9.997
        C 26.915 9.877,27.061 9.647,27.240 9.485
        C 27.418 9.324,27.564 9.109,27.564 9.007
        C 27.564 8.851,17.007 -0.000,16.821 -0.000
        C 16.786 0.000,16.586 0.182,16.376 0.405 M377.787 4.388
        C 372.081 9.120,372.260 8.941,372.710 9.456
        C 372.880 9.651,373.125 10.021,373.254 10.280
        C 373.384 10.539,373.688 10.897,373.930 11.076
        C 374.580 11.557,374.355 11.675,372.791 11.669
        L 371.382 11.664 366.619 5.913
        C 363.999 2.750,361.810 0.163,361.754 0.164
        C 361.450 0.168,358.964 2.323,359.039 2.518
        C 359.086 2.642,358.908 2.923,358.639 3.149
        L 358.154 3.558 362.623 8.913
        C 365.081 11.858,367.154 14.268,367.229 14.268
        C 367.304 14.268,367.540 14.141,367.753 13.985
        C 368.413 13.500,369.193 13.108,369.193 13.261
        C 369.193 13.341,369.047 13.831,368.869 14.349
        C 368.691 14.868,368.545 15.557,368.545 15.881
        C 368.545 16.404,362.210 22.006,358.537 24.730
        C 358.232 24.956,360.304 27.645,360.783 27.645
        C 360.959 27.645,361.242 27.827,361.412 28.050
        C 361.800 28.561,361.718 28.609,364.764 26.075
        C 367.336 23.935,367.408 23.903,366.930 25.114
        C 366.283 26.756,365.799 27.564,365.461 27.564
        C 365.117 27.564,364.946 30.545,365.283 30.672
        C 365.402 30.716,365.016 32.909,364.590 34.605
        L 364.485 35.022 360.438 35.022
        L 356.392 35.022 356.347 22.076
        C 356.311 11.390,356.264 9.083,356.081 8.861
        C 355.803 8.527,355.032 8.512,354.763 8.837
        C 354.016 9.736,352.351 7.045,352.561 5.277
        C 352.684 4.235,351.412 3.167,350.048 3.167
        C 348.740 3.167,347.397 4.364,347.560 5.385
        C 347.821 7.033,346.201 9.599,345.373 8.850
        C 344.975 8.489,344.273 8.523,344.064 8.914
        C 343.947 9.132,343.894 13.364,343.898 22.128
        L 343.903 35.022 342.928 35.022
        L 341.954 35.022 341.954 22.168
        C 341.954 10.797,341.925 9.273,341.701 8.954
        C 341.397 8.519,340.583 8.464,340.360 8.862
        C 340.223 9.107,340.159 9.099,339.634 8.775
        C 338.705 8.201,337.818 5.899,338.256 5.199
        C 338.744 4.417,336.395 2.887,335.132 3.164
        C 334.340 3.338,332.978 4.777,333.205 5.201
        C 333.794 6.302,331.810 9.703,331.087 8.832
        C 330.783 8.467,330.015 8.535,329.721 8.954
        C 329.498 9.273,329.469 10.797,329.469 22.168
        L 329.469 35.022 328.496 35.022
        L 327.523 35.022 327.523 25.294
        L 327.523 15.565 326.875 15.565
        L 326.226 15.565 326.226 14.349
        L 326.226 13.133 325.740 13.133
        L 325.253 13.133 325.253 11.998
        L 325.253 10.863 324.686 10.863
        L 324.118 10.863 324.118 9.728
        L 324.118 8.593 323.551 8.593
        L 322.983 8.593 322.983 7.458
        L 322.983 6.323 322.497 6.323
        L 322.011 6.323 322.011 5.351
        L 322.011 4.378 320.957 4.378
        L 319.903 4.378 319.903 3.162
        L 319.903 1.946 318.606 1.946
        L 317.308 1.946 317.308 3.162
        L 317.308 4.378 316.255 4.378
        L 315.201 4.378 315.201 5.351
        L 315.201 6.323 314.714 6.323
        L 314.228 6.323 314.228 7.458
        L 314.228 8.593 313.660 8.593
        L 313.093 8.593 313.093 9.728
        L 313.093 10.863 312.606 10.863
        L 312.120 10.863 312.120 11.998
        L 312.120 13.133 311.552 13.133
        L 310.985 13.133 310.985 14.349
        L 310.985 15.565 310.418 15.565
        L 309.850 15.565 309.850 25.294
        L 309.850 35.022 307.546 35.022
        L 305.243 35.022 305.959 34.292
        C 306.594 33.645,306.648 33.535,306.434 33.320
        C 306.219 33.105,306.064 33.207,305.065 34.214
        L 303.938 35.349 305.027 36.439
        C 306.058 37.469,306.132 37.513,306.396 37.249
        C 306.660 36.985,306.641 36.935,306.041 36.320
        L 305.406 35.671 307.953 35.671
        L 310.499 35.671 310.499 25.942
        L 310.499 16.214 311.066 16.214
        L 311.634 16.214 311.634 14.998
        L 311.634 13.782 312.201 13.782
        L 312.769 13.782 312.769 12.647
        L 312.769 11.512 313.255 11.512
        L 313.741 11.512 313.741 10.377
        L 313.741 9.242 314.309 9.242
        L 314.876 9.242 314.876 8.107
        L 314.876 6.972 315.444 6.972
        L 316.011 6.972 316.011 5.999
        L 316.011 5.026 316.984 5.026
        L 317.957 5.026 317.957 3.810
        L 317.957 2.594 318.606 2.594
        L 319.254 2.594 319.254 3.810
        L 319.254 5.026 320.308 5.026
        L 321.362 5.026 321.362 5.999
        L 321.362 6.972 321.848 6.972
        L 322.335 6.972 322.335 8.107
        L 322.335 9.242 322.902 9.242
        L 323.470 9.242 323.470 10.377
        L 323.470 11.512 323.956 11.512
        L 324.443 11.512 324.443 12.647
        L 324.443 13.782 325.010 13.782
        L 325.578 13.782 325.578 14.998
        L 325.578 16.214 326.145 16.214
        L 326.713 16.214 326.713 25.942
        L 326.713 35.671 328.415 35.671
        L 330.118 35.671 330.120 22.659
        C 330.122 13.715,330.177 9.571,330.295 9.404
        C 330.429 9.217,330.446 9.262,330.372 9.603
        C 330.279 10.028,330.296 10.041,330.804 9.945
        C 332.654 9.592,334.009 7.724,334.009 5.527
        C 334.009 3.140,337.209 3.461,337.476 5.874
        C 337.735 8.228,338.792 9.598,340.618 9.945
        C 341.126 10.041,341.144 10.028,341.051 9.603
        C 340.977 9.262,340.994 9.217,341.127 9.404
        C 341.246 9.571,341.301 13.715,341.303 22.659
        L 341.305 35.671 342.927 35.671
        L 344.548 35.671 344.548 22.547
        C 344.548 13.636,344.602 9.390,344.717 9.319
        C 344.826 9.251,344.848 9.364,344.778 9.642
        C 344.677 10.043,344.699 10.063,345.136 9.965
        C 346.904 9.571,347.799 8.519,348.247 6.306
        C 348.896 3.100,351.344 2.843,351.846 5.927
        C 352.247 8.392,353.053 9.491,354.736 9.867
        C 355.428 10.022,355.438 10.018,355.341 9.633
        C 355.287 9.418,355.308 9.242,355.388 9.242
        C 355.699 9.242,355.736 10.676,355.736 22.963
        L 355.736 35.671 360.409 35.671
        L 365.083 35.671 365.609 33.198
        C 365.899 31.838,366.175 30.561,366.223 30.361
        C 366.286 30.098,366.237 29.996,366.049 29.996
        C 365.692 29.996,365.671 28.454,366.026 28.318
        C 366.625 28.088,368.930 22.213,368.422 22.213
        C 368.350 22.213,366.876 23.381,365.145 24.807
        C 361.671 27.671,361.849 27.565,361.473 26.990
        C 361.319 26.756,361.080 26.599,360.917 26.625
        C 360.736 26.655,360.394 26.374,359.982 25.857
        L 359.332 25.041 364.253 20.993
        C 369.162 16.954,369.174 16.942,369.184 16.307
        C 369.189 15.956,369.454 14.833,369.774 13.811
        C 370.348 11.970,370.351 11.949,370.039 11.637
        C 369.726 11.324,369.717 11.328,369.027 11.984
        C 368.643 12.349,368.280 12.647,368.219 12.647
        C 368.158 12.647,367.977 12.793,367.815 12.971
        C 367.343 13.493,367.346 13.495,363.175 8.464
        L 359.183 3.648 359.658 3.264
        C 359.924 3.049,360.095 2.781,360.047 2.656
        C 359.875 2.208,361.577 1.064,361.902 1.409
        C 362.054 1.571,364.165 4.092,366.592 7.013
        L 371.006 12.323 372.734 12.317
        C 374.312 12.312,374.504 12.277,374.937 11.923
        L 375.411 11.536 374.960 10.945
        C 374.713 10.620,374.408 10.315,374.284 10.267
        C 374.159 10.219,374.058 10.101,374.058 10.005
        C 374.058 9.909,373.898 9.661,373.703 9.453
        C 373.466 9.201,373.402 9.022,373.511 8.913
        C 373.600 8.824,375.784 7.006,378.365 4.872
        L 383.056 0.994 383.543 1.450
        C 383.810 1.701,384.114 1.874,384.218 1.836
        C 384.386 1.773,385.570 3.136,385.570 3.393
        C 385.570 3.450,383.195 5.458,380.292 7.857
        C 377.389 10.255,374.977 12.279,374.930 12.354
        C 374.832 12.513,375.799 15.735,376.010 15.956
        C 376.094 16.043,376.253 16.019,376.402 15.895
        C 376.539 15.781,376.652 15.737,376.652 15.797
        C 376.652 15.857,376.895 15.720,377.193 15.493
        L 377.735 15.080 381.660 19.789
        C 386.078 25.089,385.898 24.823,385.319 25.203
        C 385.060 25.372,384.918 25.590,384.959 25.754
        C 385.004 25.930,384.740 26.256,384.198 26.692
        L 383.369 27.361 379.733 22.992
        C 375.516 17.925,375.765 18.159,375.913 19.393
        C 376.374 23.238,378.294 28.375,379.271 28.375
        C 379.762 28.375,380.013 29.875,379.548 30.030
        C 379.370 30.090,379.523 30.988,380.325 34.576
        L 380.569 35.671 389.588 35.671
        L 398.607 35.671 397.972 36.320
        C 397.372 36.935,397.353 36.985,397.617 37.249
        C 397.881 37.513,397.955 37.469,398.986 36.439
        L 400.075 35.349 398.948 34.214
        C 397.949 33.207,397.794 33.105,397.579 33.320
        C 397.365 33.535,397.418 33.645,398.054 34.292
        L 398.770 35.022 389.940 35.022
        L 381.110 35.022 380.665 32.874
        C 380.393 31.561,380.282 30.705,380.381 30.672
        C 380.474 30.641,380.543 29.963,380.543 29.091
        L 380.543 27.564 379.897 27.564
        C 379.290 27.564,379.228 27.518,378.861 26.793
        C 377.998 25.091,376.637 21.039,376.855 20.821
        C 376.892 20.784,378.322 22.432,380.032 24.483
        C 381.742 26.534,383.217 28.212,383.309 28.212
        C 383.688 28.212,386.033 26.183,385.959 25.919
        C 385.913 25.757,386.060 25.523,386.334 25.321
        C 386.916 24.893,387.188 25.295,382.379 19.486
        C 377.436 13.516,377.872 13.979,377.508 14.308
        C 376.640 15.094,376.361 14.997,375.991 13.779
        L 375.649 12.651 376.110 12.266
        C 376.363 12.054,378.796 10.042,381.516 7.796
        C 384.236 5.549,386.480 3.624,386.504 3.518
        C 386.572 3.207,384.614 0.811,384.292 0.811
        C 384.134 0.811,383.833 0.628,383.624 0.405
        C 383.123 -0.127,383.729 -0.541,377.787 4.388 M96.068 4.702
        L 94.941 5.838 96.231 7.134
        L 97.520 8.431 96.229 9.730
        L 94.938 11.028 96.110 12.200
        L 97.282 13.371 98.580 12.081
        L 99.878 10.790 101.139 12.043
        C 102.652 13.547,102.490 13.533,103.734 12.278
        C 104.976 11.025,104.993 11.203,103.490 9.691
        L 102.237 8.431 103.526 7.134
        L 104.816 5.838 103.688 4.702
        L 102.561 3.566 101.257 4.864
        L 99.952 6.162 98.663 4.864
        C 97.118 3.311,97.429 3.331,96.068 4.702 M296.312 4.702
        L 295.184 5.838 296.474 7.134
        L 297.763 8.431 296.510 9.691
        C 295.006 11.205,295.020 11.043,296.275 12.287
        C 297.528 13.529,297.350 13.546,298.861 12.043
        L 300.122 10.790 301.420 12.081
        L 302.718 13.371 303.890 12.200
        L 305.062 11.028 303.771 9.730
        L 302.480 8.431 303.771 7.133
        L 305.062 5.835 303.889 4.662
        L 302.716 3.489 301.380 4.824
        L 300.045 6.159 298.742 4.863
        L 297.439 3.566 296.312 4.702 M216.405 8.391
        L 214.662 12.728 214.668 23.875
        L 214.674 35.022 213.530 35.022
        L 212.387 35.022 212.436 25.537
        C 212.479 17.193,212.456 16.051,212.242 16.048
        C 211.957 16.044,208.999 10.729,208.999 10.222
        C 208.999 9.918,208.900 9.891,207.783 9.891
        C 206.644 9.891,206.567 9.913,206.567 10.242
        C 206.567 10.710,203.634 15.921,203.324 16.004
        C 203.110 16.060,203.087 17.231,203.130 25.545
        L 203.179 35.022 202.108 35.022
        L 201.037 35.022 201.086 25.537
        C 201.131 16.910,201.111 16.052,200.874 16.052
        C 200.565 16.052,197.649 10.805,197.649 10.248
        C 197.649 9.911,197.579 9.891,196.433 9.891
        C 195.329 9.891,195.217 9.920,195.217 10.212
        C 195.217 10.798,192.138 16.052,191.795 16.052
        C 191.562 16.052,191.488 16.169,191.488 16.538
        C 191.488 16.806,191.561 17.025,191.650 17.025
        C 191.756 17.025,191.812 20.132,191.812 26.024
        L 191.812 35.022 189.314 35.022
        L 186.817 35.022 186.345 34.434
        L 185.873 33.846 181.506 33.010
        L 177.138 32.174 177.096 25.438
        L 177.054 18.701 180.812 19.241
        C 182.879 19.538,184.592 19.758,184.620 19.731
        C 184.704 19.647,185.048 17.177,184.982 17.130
        C 184.843 17.029,168.628 14.861,168.556 14.933
        C 168.444 15.044,168.096 17.360,168.179 17.442
        C 168.216 17.480,169.372 17.657,170.747 17.836
        C 172.122 18.015,173.484 18.201,173.774 18.249
        L 174.301 18.337 174.301 24.996
        C 174.301 31.258,174.284 31.651,174.017 31.581
        C 173.861 31.540,172.257 31.227,170.453 30.884
        L 167.172 30.261 164.097 30.860
        C 162.406 31.190,160.800 31.504,160.527 31.559
        L 160.032 31.658 160.032 24.990
        C 160.032 21.322,160.051 18.321,160.073 18.321
        C 160.095 18.321,161.463 18.139,163.113 17.916
        C 164.763 17.694,166.154 17.512,166.204 17.512
        C 166.394 17.510,165.945 15.023,165.743 14.956
        C 165.492 14.872,149.615 17.033,149.475 17.171
        C 149.309 17.333,149.694 19.782,149.885 19.776
        C 149.982 19.772,151.684 19.528,153.668 19.232
        L 157.276 18.695 157.276 25.451
        L 157.276 32.207 153.527 32.925
        L 149.778 33.643 149.304 34.333
        L 148.829 35.022 146.086 35.022
        L 143.343 35.022 143.297 24.354
        C 143.254 14.514,143.229 13.653,142.967 13.253
        C 142.811 13.015,142.683 12.561,142.683 12.243
        C 142.683 11.734,142.627 11.655,142.205 11.570
        C 141.388 11.407,141.166 11.008,141.268 9.885
        C 141.345 9.036,141.315 8.876,141.047 8.709
        C 140.685 8.483,140.627 7.783,140.970 7.783
        C 141.344 7.783,141.453 7.152,141.139 6.805
        C 140.791 6.420,139.414 5.955,138.625 5.955
        C 137.161 5.955,135.447 7.343,136.441 7.724
        C 136.575 7.775,136.684 7.984,136.684 8.188
        C 136.684 8.392,136.575 8.601,136.441 8.652
        C 136.255 8.723,136.198 9.027,136.198 9.934
        C 136.198 11.190,136.049 11.512,135.468 11.512
        C 134.984 11.512,134.739 11.820,134.739 12.427
        C 134.739 12.716,134.674 12.992,134.594 13.041
        C 134.262 13.247,134.200 14.851,134.144 24.686
        L 134.085 35.022 133.117 35.022
        L 132.149 35.022 132.090 24.767
        C 132.031 14.515,131.984 13.471,131.560 13.119
        C 131.435 13.016,131.334 12.647,131.334 12.299
        C 131.334 11.728,131.287 11.657,130.855 11.570
        C 130.037 11.407,129.813 11.006,129.928 9.909
        C 130.005 9.170,129.973 8.905,129.789 8.752
        C 129.478 8.494,129.481 7.844,129.793 7.724
        C 130.856 7.316,129.026 5.998,127.350 5.963
        C 125.852 5.931,124.060 7.329,125.091 7.724
        C 125.225 7.775,125.334 7.994,125.334 8.211
        C 125.334 8.427,125.225 8.646,125.091 8.697
        C 124.906 8.768,124.848 9.069,124.848 9.957
        C 124.848 11.189,124.697 11.512,124.118 11.512
        C 123.618 11.512,123.389 11.824,123.389 12.508
        C 123.389 12.841,123.316 13.159,123.227 13.214
        C 123.137 13.270,123.064 13.525,123.064 13.782
        C 123.064 14.039,122.991 14.294,122.902 14.349
        C 122.797 14.415,122.740 18.053,122.740 24.736
        L 122.740 35.022 121.767 35.022
        L 120.794 35.022 120.794 22.340
        L 120.794 9.658 119.214 7.265
        L 117.633 4.871 115.087 4.868
        L 112.540 4.864 110.911 7.244
        L 109.283 9.624 109.283 22.323
        L 109.283 35.022 107.060 35.022
        L 104.837 35.022 105.554 34.292
        C 106.189 33.645,106.243 33.535,106.028 33.320
        C 105.814 33.105,105.659 33.207,104.659 34.214
        L 103.532 35.349 104.622 36.439
        C 105.652 37.469,105.726 37.513,105.990 37.249
        C 106.254 36.985,106.235 36.935,105.635 36.320
        L 105.001 35.671 107.466 35.671
        L 109.931 35.671 109.931 22.869
        L 109.931 10.068 111.408 7.790
        L 112.885 5.513 115.039 5.513
        L 117.192 5.513 118.673 7.797
        L 120.155 10.082 120.110 22.876
        L 120.065 35.671 121.727 35.671
        L 123.389 35.671 123.389 25.222
        C 123.389 18.432,123.445 14.739,123.551 14.674
        C 123.640 14.619,123.713 14.363,123.713 14.106
        C 123.713 13.849,123.786 13.594,123.875 13.539
        C 123.964 13.484,124.037 13.143,124.037 12.782
        C 124.037 12.237,124.083 12.143,124.307 12.229
        C 124.919 12.464,125.497 11.560,125.497 10.364
        C 125.497 9.547,125.557 9.253,125.740 9.183
        C 126.030 9.072,126.083 7.624,125.807 7.347
        C 125.548 7.088,126.971 6.581,127.643 6.693
        C 128.593 6.852,129.139 7.124,128.928 7.335
        C 128.642 7.621,128.685 9.069,128.983 9.183
        C 129.166 9.254,129.226 9.549,129.226 10.380
        C 129.226 11.549,129.828 12.455,130.446 12.217
        C 130.632 12.146,130.685 12.271,130.685 12.784
        C 130.685 13.242,130.771 13.490,130.969 13.600
        C 131.234 13.749,131.256 14.478,131.300 24.715
        L 131.346 35.671 133.043 35.671
        L 134.739 35.671 134.739 25.222
        C 134.739 18.432,134.795 14.739,134.901 14.674
        C 134.990 14.619,135.063 14.363,135.063 14.106
        C 135.063 13.849,135.136 13.594,135.225 13.539
        C 135.314 13.484,135.387 13.143,135.387 12.782
        C 135.387 12.237,135.433 12.143,135.657 12.229
        C 136.269 12.464,136.846 11.560,136.846 10.364
        C 136.846 9.547,136.907 9.253,137.090 9.183
        C 137.380 9.072,137.433 7.624,137.157 7.347
        C 136.897 7.088,138.321 6.581,138.993 6.693
        C 139.943 6.852,140.488 7.124,140.278 7.335
        C 139.992 7.621,140.035 9.069,140.332 9.183
        C 140.515 9.253,140.576 9.547,140.576 10.364
        C 140.576 11.560,141.153 12.464,141.765 12.229
        C 141.986 12.145,142.035 12.232,142.035 12.713
        C 142.035 13.036,142.099 13.427,142.177 13.581
        C 142.652 14.521,142.683 15.257,142.683 25.346
        L 142.683 35.671 145.992 35.671
        L 149.301 35.671 149.744 34.971
        L 150.187 34.271 153.853 33.570
        C 155.870 33.185,157.610 32.836,157.722 32.794
        C 158.108 32.649,158.007 17.998,157.620 17.998
        C 157.452 17.998,155.801 18.216,153.952 18.484
        C 152.103 18.752,150.534 18.970,150.465 18.970
        C 150.341 18.970,150.073 17.850,150.173 17.750
        C 150.202 17.721,153.472 17.253,157.439 16.709
        C 161.407 16.165,164.810 15.686,165.001 15.644
        C 165.299 15.579,165.358 15.654,165.421 16.175
        C 165.516 16.958,165.589 16.927,162.902 17.252
        C 161.636 17.405,160.326 17.572,159.992 17.623
        L 159.384 17.715 159.384 25.071
        C 159.384 30.848,159.427 32.428,159.587 32.429
        C 159.698 32.429,161.446 32.097,163.470 31.691
        L 167.152 30.954 170.981 31.691
        C 173.088 32.096,174.878 32.428,174.961 32.428
        C 175.282 32.428,175.149 17.674,174.828 17.667
        C 174.672 17.663,173.304 17.496,171.788 17.297
        L 169.031 16.934 168.980 16.497
        C 168.869 15.545,168.626 15.540,176.490 16.639
        C 180.503 17.199,183.877 17.661,183.989 17.666
        C 184.258 17.676,184.256 18.794,183.986 18.897
        C 183.873 18.940,182.260 18.756,180.400 18.487
        C 178.540 18.218,176.881 17.998,176.714 17.998
        C 176.419 17.998,176.409 18.260,176.409 25.357
        L 176.409 32.717 176.773 32.802
        C 176.974 32.849,178.962 33.231,181.192 33.651
        L 185.245 34.414 185.900 35.042
        L 186.555 35.671 189.508 35.671
        L 192.460 35.671 192.460 26.268
        L 192.460 16.864 194.163 13.874
        C 195.099 12.230,195.865 10.807,195.865 10.712
        C 195.865 10.617,196.121 10.539,196.433 10.539
        C 196.762 10.539,197.000 10.620,197.000 10.731
        C 197.000 11.020,200.110 16.700,200.268 16.700
        C 200.344 16.700,200.405 20.969,200.405 26.186
        L 200.405 35.671 202.108 35.671
        L 203.810 35.671 203.810 26.305
        L 203.810 16.938 205.513 13.944
        C 206.449 12.297,207.215 10.857,207.215 10.744
        C 207.215 10.618,207.433 10.539,207.783 10.539
        C 208.095 10.539,208.350 10.615,208.350 10.707
        C 208.350 10.941,211.457 16.607,211.622 16.673
        C 211.695 16.703,211.755 20.990,211.755 26.199
        L 211.755 35.671 213.539 35.671
        L 215.322 35.671 215.315 24.362
        L 215.308 13.052 216.977 8.880
        L 218.646 4.708 225.942 4.708
        L 233.239 4.708 234.907 8.880
        L 236.574 13.052 236.569 24.362
        L 236.563 35.671 238.265 35.671
        L 239.968 35.671 239.968 23.439
        C 239.968 14.670,240.018 11.175,240.147 11.096
        C 240.269 11.020,240.290 11.101,240.210 11.351
        C 240.100 11.699,240.124 11.711,240.714 11.600
        C 242.488 11.268,243.462 9.956,243.794 7.453
        C 244.117 5.014,247.260 4.896,247.263 7.322
        C 247.264 8.117,247.782 9.738,248.239 10.381
        C 248.872 11.270,251.267 12.165,250.831 11.350
        C 250.733 11.167,250.723 11.026,250.808 11.026
        C 251.131 11.026,251.155 11.916,251.155 23.605
        L 251.155 35.671 252.858 35.671
        L 254.560 35.671 254.560 22.334
        L 254.560 8.997 256.025 7.660
        L 257.489 6.323 259.593 6.323
        L 261.697 6.323 263.147 7.661
        L 264.597 8.999 264.605 22.335
        L 264.613 35.671 266.315 35.671
        L 268.018 35.671 268.018 27.726
        L 268.018 19.781 268.504 19.781
        L 268.991 19.781 268.991 18.727
        C 268.991 17.711,269.005 17.673,269.396 17.673
        C 269.779 17.673,269.801 17.625,269.801 16.782
        C 269.801 15.899,269.806 15.890,270.288 15.890
        L 270.774 15.890 270.774 14.917
        C 270.774 13.987,270.792 13.944,271.180 13.944
        C 271.563 13.944,271.585 13.895,271.585 13.052
        C 271.585 12.170,271.590 12.161,272.071 12.161
        C 272.547 12.161,272.558 12.143,272.558 11.350
        L 272.558 10.539 273.368 10.539
        L 274.179 10.539 274.179 9.485
        L 274.179 8.431 274.666 8.431
        L 275.152 8.431 275.152 9.485
        L 275.152 10.539 275.963 10.539
        L 276.773 10.539 276.773 11.350
        C 276.773 12.106,276.800 12.161,277.179 12.161
        C 277.562 12.161,277.584 12.209,277.584 13.052
        C 277.584 13.935,277.589 13.944,278.071 13.944
        L 278.557 13.944 278.557 14.917
        C 278.557 15.847,278.575 15.890,278.962 15.890
        C 279.346 15.890,279.368 15.938,279.368 16.782
        C 279.368 17.664,279.373 17.673,279.854 17.673
        L 280.340 17.673 280.340 18.727
        C 280.340 19.743,280.355 19.781,280.746 19.781
        L 281.151 19.781 281.151 27.726
        L 281.151 35.671 288.075 35.671
        L 294.999 35.671 294.365 36.320
        C 293.765 36.935,293.746 36.985,294.010 37.249
        C 294.274 37.513,294.348 37.469,295.378 36.439
        L 296.468 35.349 295.341 34.214
        C 294.341 33.207,294.186 33.105,293.972 33.320
        C 293.757 33.535,293.811 33.645,294.446 34.292
        L 295.163 35.022 288.481 35.022
        L 281.800 35.022 281.800 27.077
        L 281.800 19.133 281.394 19.133
        C 281.004 19.133,280.989 19.095,280.989 18.079
        L 280.989 17.025 280.503 17.025
        C 280.021 17.025,280.016 17.016,280.016 16.133
        C 280.016 15.290,279.994 15.241,279.611 15.241
        C 279.224 15.241,279.206 15.198,279.206 14.268
        C 279.206 13.339,279.187 13.296,278.800 13.296
        C 278.417 13.296,278.395 13.247,278.395 12.404
        C 278.395 11.521,278.390 11.512,277.908 11.512
        C 277.433 11.512,277.422 11.494,277.422 10.701
        L 277.422 9.891 276.611 9.891
        L 275.801 9.891 275.801 8.837
        L 275.801 7.783 274.666 7.783
        L 273.531 7.783 273.531 8.837
        L 273.531 9.891 272.720 9.891
        L 271.909 9.891 271.909 10.701
        C 271.909 11.494,271.898 11.512,271.423 11.512
        C 270.941 11.512,270.936 11.521,270.936 12.404
        C 270.936 13.247,270.914 13.296,270.531 13.296
        C 270.144 13.296,270.126 13.339,270.126 14.268
        L 270.126 15.241 269.639 15.241
        C 269.158 15.241,269.153 15.250,269.153 16.133
        C 269.153 16.976,269.131 17.025,268.747 17.025
        C 268.357 17.025,268.342 17.063,268.342 18.079
        L 268.342 19.133 267.856 19.133
        L 267.369 19.133 267.369 27.077
        L 267.369 35.022 266.315 35.022
        L 265.261 35.022 265.261 21.830
        L 265.261 8.638 263.656 7.157
        L 262.050 5.675 259.562 5.679
        L 257.073 5.684 255.493 7.154
        L 253.912 8.625 253.912 21.824
        L 253.912 35.022 252.858 35.022
        L 251.804 35.022 251.801 23.064
        C 251.800 13.773,251.753 11.016,251.595 10.701
        C 251.346 10.208,250.786 10.101,250.260 10.446
        C 249.757 10.775,249.802 10.785,249.136 10.200
        C 248.445 9.593,247.860 7.937,248.004 6.997
        C 248.157 6.004,246.825 4.864,245.513 4.864
        C 244.244 4.864,242.284 6.581,243.028 7.041
        C 243.109 7.090,243.108 7.457,243.027 7.893
        C 242.687 9.710,241.421 11.182,240.763 10.524
        C 240.352 10.113,239.881 10.133,239.571 10.575
        C 239.348 10.893,239.319 12.341,239.319 22.979
        L 239.319 35.022 238.265 35.022
        L 237.211 35.022 237.211 23.843
        L 237.211 12.664 235.468 8.359
        L 233.725 4.054 225.937 4.054
        L 218.148 4.054 216.405 8.391 M102.591 7.097
        C 101.073 8.624,101.076 8.404,102.556 9.893
        L 103.774 11.118 103.121 11.755
        L 102.469 12.392 101.174 11.105
        L 99.878 9.817 98.581 11.107
        L 97.283 12.398 96.634 11.749
        L 95.986 11.100 97.284 9.810
        L 98.582 8.520 97.282 7.213
        L 95.983 5.907 96.635 5.270
        L 97.288 4.632 98.585 5.921
        L 99.881 7.210 101.216 5.876
        L 102.550 4.541 103.197 5.188
        L 103.845 5.836 102.591 7.097 M301.417 5.920
        L 302.712 4.632 303.365 5.270
        L 304.017 5.907 302.718 7.213
        L 301.418 8.520 302.716 9.810
        L 304.014 11.100 303.366 11.749
        L 302.717 12.398 301.419 11.107
        L 300.122 9.817 298.826 11.105
        L 297.531 12.392 296.879 11.755
        L 296.226 11.118 297.444 9.893
        C 298.924 8.404,298.927 8.623,297.411 7.099
        L 296.161 5.841 296.798 5.188
        L 297.435 4.536 298.778 5.872
        L 300.121 7.208 301.417 5.920 M96.068 15.241
        L 94.941 16.377 96.231 17.674
        L 97.520 18.970 96.229 20.269
        L 94.938 21.567 96.110 22.739
        L 97.282 23.910 98.580 22.620
        L 99.878 21.329 101.177 22.620
        L 102.475 23.910 103.647 22.739
        L 104.818 21.567 103.528 20.269
        L 102.237 18.970 103.509 17.691
        C 104.980 16.211,104.977 16.400,103.558 15.079
        L 102.454 14.051 101.166 15.332
        L 99.878 16.612 98.618 15.359
        C 97.109 13.858,97.426 13.873,96.068 15.241 M296.352 15.150
        C 295.016 16.407,295.003 16.194,296.510 17.710
        L 297.763 18.970 296.472 20.269
        L 295.182 21.567 296.353 22.739
        L 297.525 23.910 298.823 22.620
        L 300.122 21.329 301.420 22.620
        L 302.718 23.910 303.890 22.739
        L 305.062 21.567 303.771 20.269
        L 302.480 18.970 303.771 17.672
        L 305.062 16.374 303.890 15.202
        L 302.718 14.030 301.420 15.321
        L 300.122 16.612 298.861 15.359
        C 297.365 13.872,297.682 13.898,296.352 15.150 M98.618 16.332
        L 99.878 17.585 101.174 16.297
        L 102.469 15.009 103.121 15.647
        L 103.774 16.284 102.556 17.509
        C 101.076 18.998,101.073 18.779,102.589 20.303
        L 103.839 21.561 103.202 22.213
        L 102.565 22.866 101.222 21.530
        L 99.879 20.194 98.583 21.482
        L 97.288 22.769 96.635 22.132
        L 95.983 21.495 97.282 20.188
        L 98.582 18.882 97.286 17.594
        L 95.990 16.306 96.589 15.692
        C 97.338 14.926,97.141 14.864,98.618 16.332 M298.861 16.332
        L 300.122 17.585 301.417 16.297
        L 302.712 15.009 303.365 15.647
        L 304.017 16.284 302.718 17.590
        L 301.418 18.897 302.716 20.187
        L 304.014 21.477 303.366 22.126
        L 302.717 22.775 301.419 21.484
        L 300.121 20.194 298.778 21.530
        L 297.435 22.866 296.798 22.213
        L 296.161 21.561 297.411 20.303
        C 298.928 18.777,298.925 18.980,297.448 17.513
        L 296.233 16.306 296.832 15.692
        C 297.581 14.925,297.385 14.864,298.861 16.332 M96.068 25.618
        L 94.941 26.754 96.274 28.093
        L 97.606 29.433 96.273 30.767
        L 94.939 32.100 95.985 33.156
        C 97.272 34.454,97.102 34.466,98.618 32.959
        L 99.878 31.706 101.139 32.959
        C 102.652 34.463,102.490 34.449,103.734 33.194
        C 104.976 31.940,104.989 32.097,103.526 30.644
        L 102.310 29.436 103.526 28.213
        C 104.994 26.736,104.985 26.925,103.652 25.581
        L 102.561 24.482 101.220 25.817
        L 99.878 27.151 98.537 25.817
        L 97.195 24.482 96.068 25.618 M296.348 25.581
        C 295.013 26.927,295.005 26.753,296.474 28.213
        L 297.690 29.421 296.474 30.644
        C 295.010 32.116,295.022 31.961,296.275 33.203
        C 297.528 34.445,297.350 34.462,298.861 32.959
        L 300.122 31.706 301.382 32.959
        C 302.898 34.466,302.728 34.454,304.015 33.156
        L 305.061 32.100 303.727 30.767
        L 302.394 29.433 303.726 28.093
        L 305.059 26.754 303.932 25.618
        L 302.805 24.482 301.463 25.817
        L 300.122 27.151 298.780 25.817
        L 297.439 24.482 296.348 25.581 M98.618 26.871
        L 99.878 28.124 101.174 26.836
        L 102.469 25.549 103.121 26.186
        L 103.774 26.823 102.556 28.048
        C 101.886 28.722,101.338 29.343,101.338 29.428
        C 101.338 29.514,101.886 30.135,102.556 30.809
        L 103.774 32.034 103.121 32.671
        L 102.469 33.308 101.174 32.021
        L 99.878 30.733 98.583 32.021
        L 97.288 33.308 96.635 32.671
        L 95.983 32.034 97.282 30.728
        L 98.582 29.421 97.286 28.133
        L 95.990 26.845 96.589 26.231
        C 97.338 25.465,97.141 25.403,98.618 26.871 M298.861 26.871
        L 300.122 28.124 301.417 26.836
        L 302.712 25.549 303.365 26.186
        L 304.017 26.823 302.718 28.129
        L 301.418 29.436 302.716 30.726
        L 304.014 32.017 303.366 32.665
        L 302.717 33.314 301.419 32.023
        L 300.122 30.733 298.826 32.021
        L 297.531 33.308 296.879 32.671
        L 296.226 32.034 297.444 30.809
        C 298.923 29.321,298.923 29.517,297.448 28.052
        L 296.233 26.845 296.832 26.232
        C 297.581 25.465,297.385 25.403,298.861 26.871">
    </path>
</svg>