<?xml version="1.0" encoding="UTF-8" standalone="no"?>
<svg
   xmlns:dc="http://purl.org/dc/elements/1.1/"
   xmlns:cc="http://creativecommons.org/ns#"
   xmlns:rdf="http://www.w3.org/1999/02/22-rdf-syntax-ns#"
   xmlns:svg="http://www.w3.org/2000/svg"
   xmlns="http://www.w3.org/2000/svg"
   xmlns:sodipodi="http://sodipodi.sourceforge.net/DTD/sodipodi-0.dtd"
   xmlns:inkscape="http://www.inkscape.org/namespaces/inkscape"
   inkscape:export-ydpi="9600"
   inkscape:export-xdpi="9600"
   inkscape:export-filename="D:\Gebruikers bestanden\Bureaublad\logo George Hollywood.png"
   inkscape:version="1.0 (4035a4fb49, 2020-05-01)"
   sodipodi:docname="logo.svg"
   id="svg877"
   version="1.1"
   viewBox="0 0 154 70"
   height="70"
   width="154">
  <metadata
     id="metadata883">
    <rdf:RDF>
      <cc:Work
         rdf:about="">
        <dc:format>image/svg+xml</dc:format>
        <dc:type
           rdf:resource="http://purl.org/dc/dcmitype/StillImage" />
        <dc:title>Logo George Hollywood</dc:title>
      </cc:Work>
    </rdf:RDF>
  </metadata>
  <defs
     id="defs881" />
  <sodipodi:namedview
     inkscape:current-layer="svg877"
     inkscape:window-maximized="1"
     inkscape:window-y="-6"
     inkscape:window-x="-6"
     inkscape:cy="29.077982"
     inkscape:cx="90.797361"
     inkscape:zoom="4"
     showgrid="false"
     id="namedview879"
     inkscape:window-height="1018"
     inkscape:window-width="1920"
     inkscape:pageshadow="2"
     inkscape:pageopacity="0"
     guidetolerance="10"
     gridtolerance="10"
     objecttolerance="10"
     borderopacity="1"
     bordercolor="#666666"
     pagecolor="#ffffff"
     inkscape:document-rotation="0" />
  <title
     id="title859">Logo George Hollywood</title>
  <g
     style="fill:#333333;fill-opacity:1"
     transform="translate(0.42463,-50.690364)"
     id="g920">
    <path
       style="fill:#333333;fill-opacity:1;fill-rule:nonzero;stroke:none;stroke-width:1"
       id="Path"
       d="m 0,62.320341 c 0,-3.540083 0,-5.918869 1.5078132,-8.250829 1.4796444,-2.251615 4.054315,-3.535375 6.7430155,-3.362142 7.3236643,0 7.3236643,5.975061 7.3236643,9.000052 v 4.298673 h -5.00107 v -4.588997 c 0,-2.322594 -0.112384,-4.186289 -2.4911697,-4.186289 -2.7346674,0 -2.7346674,2.500535 -2.7346674,4.532805 v 23.591189 c 0,2.669111 0,4.935513 2.6691103,4.935513 2.6691108,0 2.7346678,-2.434978 2.7346678,-3.661832 V 75.338107 H 7.4360477 V 70.346402 H 16.089584 V 92.195646 H 12.839825 L 12.37156,90.322586 C 11.279146,91.964406 9.40602,92.913409 7.4360477,92.823121 0,92.823121 0,85.565014 0,82.596214 Z" />
    <polygon
       style="fill:#333333;fill-opacity:1;fill-rule:nonzero;stroke:none;stroke-width:1"
       points="42.462267,91.676915 28.873218,91.676915 28.873218,50.666269 42.406075,50.666269 42.406075,55.835915 34.389379,55.835915 34.389379,67.804767 41.591294,67.804767 41.591294,72.852664 34.389379,72.852664 34.389379,86.50727 42.462267,86.50727 "
       id="polygon862"
       transform="translate(0,0.5)" />
    <path
       style="fill:#333333;fill-opacity:1;fill-rule:nonzero;stroke:none;stroke-width:1"
       d="m 65.05137,61.861441 c 0,-3.549449 0,-6.274751 -3.137376,-6.274751 -1.332558,-0.08649 -2.563321,0.713695 -3.024991,1.966713 -0.290325,0.814781 -0.290325,1.695119 -0.290325,4.251846 v 22.017819 c 0,2.03227 0.177941,4.298672 3.137376,4.298672 3.193567,0 3.315316,-2.678476 3.315316,-5.619179 z m -11.847104,0.402708 c 0,-3.74612 0.168575,-6.387134 2.03227,-8.541153 1.736117,-1.861231 4.189518,-2.884902 6.73365,-2.80959 2.293952,-0.145427 4.539389,0.70429 6.162367,2.331959 2.257037,2.378786 2.257037,5.225837 2.257037,10.30183 v 19.470457 c 0,3.015626 -0.112383,9.636893 -8.943861,9.636893 -1.105105,0 -5.282029,0 -7.258107,-4.008348 -0.93653,-1.87306 -0.93653,-3.830408 -0.93653,-5.806486 z"
       id="Shape" />
    <path
       style="fill:#333333;fill-opacity:1;fill-rule:nonzero;stroke:none;stroke-width:1"
       d="m 88.099371,56.101782 v 12.67125 h 2.556727 c 2.725302,0 2.80959,-1.217489 2.80959,-8.016697 0,-4.532804 -0.290324,-4.682649 -2.612919,-4.682649 z m -5.459969,-4.935513 h 8.831477 c 6.621267,0 7.379856,1.807503 7.379856,9.936582 0,7.201916 -0.177941,10.16135 -4.588997,10.114524 v 0.224767 c 3.886599,0.468265 4.411056,2.678476 4.411056,8.138445 v 4.467248 c 0,4.944878 0.121749,5.694102 1.039548,8.138445 H 94.093163 C 93.474969,89.363243 93.182734,86.478597 93.22219,83.588935 v -2.940704 c 0,-1.57337 -0.05619,-4.823129 -0.702398,-6.162367 -0.646205,-1.339238 -1.27368,-1.217489 -4.467247,-1.217489 v 18.880444 h -5.403778 z"
       id="path865" />
    <path
       style="fill:#333333;fill-opacity:1;fill-rule:nonzero;stroke:none;stroke-width:1"
       d="m 110.68847,62.32034 c 0,-3.540083 0,-5.918869 1.50782,-8.250828 1.46979,-2.257741 4.04578,-3.543941 6.73365,-3.362143 7.32366,0 7.32366,5.975061 7.32366,9.000053 v 4.298672 h -5.00107 v -4.588996 c 0,-2.322595 -0.11238,-4.186289 -2.49117,-4.186289 -2.73467,0 -2.73467,2.500535 -2.73467,4.532805 v 23.591189 c 0,2.66911 0,4.935512 2.67848,4.935512 2.67848,0 2.7253,-2.434977 2.7253,-3.661831 v -9.290378 h -3.31531 v -4.991704 h 8.6629 v 21.849243 h -3.25913 l -0.4589,-1.87306 c -1.08715,1.659019 -2.96269,2.628758 -4.94487,2.556727 -7.42669,0 -7.42669,-7.258107 -7.42669,-10.226907 z"
       id="path867" />
    <polygon
       style="fill:#333333;fill-opacity:1;fill-rule:nonzero;stroke:none;stroke-width:1"
       points="153.15074,91.676915 139.55232,91.676915 139.55232,50.666269 153.08518,50.666269 153.08518,55.835915 145.06849,55.835915 145.06849,67.804767 152.2704,67.804767 152.2704,72.852664 145.06849,72.852664 145.06849,86.50727 153.15074,86.50727 "
       id="polygon870"
       transform="translate(0,0.5)" />
  </g>
  <g
     style="font-weight:300;font-stretch:condensed;font-size:20px;line-height:1;font-family:Bahnschrift;-inkscape-font-specification:'Bahnschrift Light Condensed';letter-spacing:0px;word-spacing:0px;fill:#333333;fill-opacity:1"
     id="text924"
     aria-label="H o l l y w o o d">
    <path
       id="path847"
       style="font-style:normal;font-variant:normal;font-weight:normal;font-stretch:normal;font-size:20px;font-family:'Hollywood Hills';-inkscape-font-specification:'Hollywood Hills';fill:#333333;fill-opacity:1"
       d="M 10.726563,68.215273 H 7.7265625 v -5.5 h -2 v 5.5 h -3 v -14 h 3 v 5.5 h 2 v -5.5 h 3.0000005 z" />
    <path
       id="path849"
       style="font-style:normal;font-variant:normal;font-weight:normal;font-stretch:normal;font-size:20px;font-family:'Hollywood Hills';-inkscape-font-specification:'Hollywood Hills';fill:#333333;fill-opacity:1"
       d="m 25.34375,65.215273 v -8 h -2 v 8 z m 3,1 -2,2 h -4 l -2,-2 v -10 l 2,-2 h 4 l 2,2 z" />
    <path
       id="path851"
       style="font-style:normal;font-variant:normal;font-weight:normal;font-stretch:normal;font-size:20px;font-family:'Hollywood Hills';-inkscape-font-specification:'Hollywood Hills';fill:#333333;fill-opacity:1"
       d="m 44.960938,68.615273 h -7 v -14 h 3 v 11 h 4 z" />
    <path
       id="path853"
       style="font-style:normal;font-variant:normal;font-weight:normal;font-stretch:normal;font-size:20px;font-family:'Hollywood Hills';-inkscape-font-specification:'Hollywood Hills';fill:#333333;fill-opacity:1"
       d="m 60.976563,68.615273 h -7 v -14 h 3 v 11 h 4 z" />
    <path
       id="path855"
       style="font-style:normal;font-variant:normal;font-weight:normal;font-stretch:normal;font-size:20px;font-family:'Hollywood Hills';-inkscape-font-specification:'Hollywood Hills';fill:#333333;fill-opacity:1"
       d="m 78.392188,53.215273 -3,7.4 v 6.6 h -3 v -6.6 l -3,-7.4 h 3 l 1.5,3.9 1.5,-3.9 z" />
    <path
       id="path857"
       style="font-style:normal;font-variant:normal;font-weight:normal;font-stretch:normal;font-size:20px;font-family:'Hollywood Hills';-inkscape-font-specification:'Hollywood Hills';fill:#333333;fill-opacity:1"
       d="m 99.514063,53.015273 -2.6,14 h -3.2 l -0.8,-4.66 -0.8,4.66 h -3.2 l -2.6,-14 h 3 l 1.6,7.74 1.2,-7.74 h 1.6 l 1.2,7.74 1.6,-7.74 z" />
    <path
       id="path859"
       style="font-style:normal;font-variant:normal;font-weight:normal;font-stretch:normal;font-size:20px;font-family:'Hollywood Hills';-inkscape-font-specification:'Hollywood Hills';fill:#333333;fill-opacity:1"
       d="m 113.03906,65.215273 v -8 h -2 v 8 z m 3,1 -2,2 h -4 l -2,-2 v -10 l 2,-2 h 4 l 2,2 z" />
    <path
       id="path861"
       style="font-style:normal;font-variant:normal;font-weight:normal;font-stretch:normal;font-size:20px;font-family:'Hollywood Hills';-inkscape-font-specification:'Hollywood Hills';fill:#333333;fill-opacity:1"
       d="m 130.65625,65.215273 v -8 h -2 v 8 z m 3,1 -2,2 h -4 l -2,-2 v -10 l 2,-2 h 4 l 2,2 z" />
    <path
       id="path863"
       style="font-style:normal;font-variant:normal;font-weight:normal;font-stretch:normal;font-size:20px;font-family:'Hollywood Hills';-inkscape-font-specification:'Hollywood Hills';fill:#333333;fill-opacity:1"
       d="m 148.27344,64.015273 v -8 h -2 v 8 z m 3,1 -2,2 h -6 v -14 h 6 l 2,2 z" />
  </g>
  <path
     d="m 76.95703,47.004864 a 0.97628123,0.97628123 0 0 0 -0.933593,0.980468 0.97628123,0.97628123 0 0 0 0.978515,0.970703 0.97628123,0.97628123 0 0 0 0.974609,-0.976562 v -0.0098 a 0.97628123,0.97628123 0 0 0 -0.984374,-0.964843 0.97628123,0.97628123 0 0 0 -0.03516,0 z m -2.34375,0.03711 c -41.10536,0.01641 -73.94335953,0.425251 -73.94335953,0.9375 0,0.512249 32.83799953,0.923045 73.94335953,0.939453 a 2.5647855,2.5647855 0 0 1 -0.177734,-0.923829 2.5647855,2.5647855 0 0 1 0.177734,-0.953124 z m 4.773438,0 a 2.5647855,2.5647855 0 0 1 0.177734,0.908203 v 0.0293 a 2.5647855,2.5647855 0 0 1 -0.179687,0.939453 c 41.106325,-0.0164 73.945315,-0.427195 73.945315,-0.939453 0,-0.512249 -32.838,-0.921092 -73.943362,-0.9375 z"
     style="fill:#ff8000;fill-opacity:1;stroke:none;stroke-width:0.5;stroke-linecap:round;stroke-opacity:1;stroke-miterlimit:4;stroke-dasharray:none;stroke-linejoin:round"
     id="rect847" />
</svg>
