<svg
   aria-hidden="true"
   focusable="false"
   data-icon="adjust"
   class="Logo"
   role="img"
   xmlns="http://www.w3.org/2000/svg"
   version="1.1"
   viewBox="0 0 154 70"
   width="70px"
   weight="400">

   <path
      fill="currentColor"
      d="M 8.6757812 0.017578125
      C 5.9870808 -0.15565487 3.411285 1.1272912 1.9316406 3.3789062 
      C 0.42382744 5.7108663 0.42382812 8.0907768 0.42382812 11.630859 
      L 0.42382812 31.90625 
      C 0.42382812 34.87505 0.42528045 42.132812 7.8613281 42.132812 
      C 9.8313004 42.223101 11.704461 41.274634 12.796875 39.632812
      L 13.263672 41.505859
      L 16.513672 41.505859
      L 16.513672 19.65625
      L 7.8613281 19.65625
      L 7.8613281 24.648438
      L 11.175781 24.648438
      L 11.175781 33.9375
      C 11.175781 35.164354 11.110517 37.599609 8.4414062 37.599609
      C 5.772296 37.599609 5.7714844 35.333174 5.7714844 32.664062
      L 5.7714844 9.0742188
      C 5.7714844 7.0419487 5.7731451 4.5410156 8.5078125 4.5410156
      C 10.886598 4.5410156 10.998047 6.4039685 10.998047 8.7265625
      L 10.998047 13.316406
      L 16 13.316406
      L 16 9.0175781
      C 16 5.9925871 15.999446 0.017578125 8.6757812 0.017578125 z
      M 118.35352 0.017578125
      C 116.0397 0.17284194 113.90716 1.4033829 112.62109 3.3789062
      C 111.11327 5.7108652 111.11328 8.0907768 111.11328 11.630859
      L 111.11328 31.962891
      C 111.11328 34.931691 111.11237 42.189453 118.53906 42.189453
      C 120.52124 42.261484 122.39722 41.291832 123.48438 39.632812
      L 123.94336 41.505859
      L 127.20312 41.505859
      L 127.20312 19.65625
      L 118.53906 19.65625
      L 118.53906 24.648438
      L 121.85547 24.648438
      L 121.85547 33.9375
      C 121.85547 35.164354 121.80739 37.599609 119.12891 37.599609
      C 116.45043 37.599609 116.45117 35.333174 116.45117 32.664062
      L 116.45117 9.0742188
      C 116.45117 7.0419487 116.45088 4.5410156 119.18555 4.5410156
      C 121.56434 4.5410156 121.67773 6.4039675 121.67773 8.7265625
      L 121.67773 13.316406
      L 126.67773 13.316406
      L 126.67773 9.0175781
      C 126.67773 5.9925861 126.67913 0.017578125 119.35547 0.017578125
      C 119.01949 -0.005146625 118.68406 -0.0046024199 118.35352 0.017578125 z
      M 63.251953 0.21484375
      C 62.967846 0.20234808 62.681275 0.20447788 62.394531 0.22265625
      C 59.850399 0.14734425 57.398226 1.1719721 55.662109 3.0332031
      C 53.798414 5.1872221 53.628906 7.8280986 53.628906 11.574219
      L 53.675781 32.148438
      C 53.675781 34.124515 53.674798 36.082018 54.611328 37.955078
      C 56.587406 41.963426 60.765989 41.964844 61.871094 41.964844
      C 70.702572 41.964844 70.814453 35.343751 70.814453 32.328125
      L 70.814453 12.857422
      C 70.814453 7.7814288 70.813678 4.9334735 68.556641 2.5546875
      C 67.136535 1.1304771 65.240702 0.30231345 63.251953 0.21484375 z
      M 29.296875 0.4765625
      L 29.296875 41.486328
      L 42.886719 41.486328
      L 42.886719 36.316406
      L 34.814453 36.316406
      L 34.814453 22.662109
      L 42.015625 22.662109
      L 42.015625 17.615234
      L 34.814453 17.615234
      L 34.814453 5.6464844
      L 42.830078 5.6464844
      L 42.830078 0.4765625
      L 29.296875 0.4765625 z
      M 83.064453 0.4765625
      L 83.074219 41.458984
      L 88.476562 41.458984
      L 88.476562 22.578125
      C 91.67013 22.578125 92.299109 22.455684 92.945312 23.794922
      C 93.591521 25.13416 93.646484 28.383661 93.646484 29.957031
      L 93.646484 32.898438
      C 93.607028 35.7881 93.899384 38.673057 94.517578 41.496094
      L 100.13672 41.496094
      C 99.218921 39.051751 99.097656 38.3023 99.097656 33.357422
      L 99.097656 28.890625
      C 99.097656 23.430656 98.572146 21.220218 94.685547 20.751953
      L 94.685547 20.527344
      C 99.096603 20.57417 99.275391 17.614025 99.275391 10.412109
      C 99.275391 2.2830308 98.517751 0.4765625 91.896484 0.4765625
      L 83.064453 0.4765625 z
      M 139.97656 0.4765625
      L 139.97656 41.486328
      L 153.57617 41.486328
      L 153.57617 36.316406
      L 145.49219 36.316406
      L 145.49219 22.662109
      L 152.69531 22.662109
      L 152.69531 17.615234
      L 145.49219 17.615234
      L 145.49219 5.6464844
      L 153.50977 5.6464844
      L 153.50977 0.4765625
      L 139.97656 0.4765625 z
      M 62.337891 4.8964844
      C 65.475267 4.8964844 65.476562 7.622426 65.476562 11.171875
      L 65.476562 31.8125
      C 65.476562 34.753203 65.353723 37.431641 62.160156 37.431641
      C 59.200721 37.431641 59.023438 35.165082 59.023438 33.132812
      L 59.023438 11.115234
      C 59.023438 8.5585078 59.024128 7.6780622 59.314453 6.8632812
      C 59.776123 5.6102633 61.005333 4.8099944 62.337891 4.8964844 z
      M 91.277344 5.3828125
      C 93.599939 5.3828125 93.890625 5.5336025 93.890625 10.066406
      C 93.890625 16.865614 93.80538 18.082031 91.080078 18.082031
      L 88.523438 18.082031
      L 88.523438 5.4121094
      L 91.277344 5.3828125 z
      M 86.314453 53.015625
      L 88.914062 67.015625
      L 92.113281 67.015625
      L 92.914062 62.355469
      L 93.714844 67.015625
      L 96.914062 67.015625
      L 99.513672 53.015625
      L 96.513672 53.015625
      L 94.914062 60.755859
      L 93.714844 53.015625
      L 92.113281 53.015625
      L 90.914062 60.755859
      L 89.314453 53.015625
      L 86.314453 53.015625 z
      M 143.27344 53.015625
      L 143.27344 67.015625
      L 149.27344 67.015625
      L 151.27344 65.015625
      L 151.27344 55.015625
      L 149.27344 53.015625
      L 143.27344 53.015625 z
      M 69.392578 53.214844
      L 72.392578 60.615234
      L 72.392578 67.214844
      L 75.392578 67.214844
      L 75.392578 60.615234
      L 78.392578 53.214844
      L 75.392578 53.214844
      L 73.892578 57.115234
      L 72.392578 53.214844
      L 69.392578 53.214844 z
      M 2.7265625 54.214844
      L 2.7265625 68.214844
      L 5.7265625 68.214844
      L 5.7265625 62.714844
      L 7.7265625 62.714844
      L 7.7265625 68.214844
      L 10.726562 68.214844
      L 10.726562 54.214844
      L 7.7265625 54.214844
      L 7.7265625 59.714844
      L 5.7265625 59.714844
      L 5.7265625 54.214844
      L 2.7265625 54.214844 z
      M 22.34375 54.214844
      L 20.34375 56.214844
      L 20.34375 66.214844
      L 22.34375 68.214844
      L 26.34375 68.214844
      L 28.34375 66.214844
      L 28.34375 56.214844
      L 26.34375 54.214844
      L 22.34375 54.214844 z
      M 110.03906 54.214844
      L 108.03906 56.214844
      L 108.03906 66.214844
      L 110.03906 68.214844
      L 114.03906 68.214844
      L 116.03906 66.214844
      L 116.03906 56.214844
      L 114.03906 54.214844
      L 110.03906 54.214844 z
      M 127.65625 54.214844
      L 125.65625 56.214844
      L 125.65625 66.214844
      L 127.65625 68.214844
      L 131.65625 68.214844
      L 133.65625 66.214844
      L 133.65625 56.214844
      L 131.65625 54.214844
      L 127.65625 54.214844 z
      M 37.960938 54.615234
      L 37.960938 68.615234
      L 44.960938 68.615234
      L 44.960938 65.615234
      L 40.960938 65.615234
      L 40.960938 54.615234
      L 37.960938 54.615234 z
      M 53.976562 54.615234
      L 53.976562 68.615234
      L 60.976562 68.615234
      L 60.976562 65.615234
      L 56.976562 65.615234
      L 56.976562 54.615234
      L 53.976562 54.615234 z
      M 146.27344 56.015625
      L 148.27344 56.015625
      L 148.27344 64.015625
      L 146.27344 64.015625
      L 146.27344 56.015625 z
      M 23.34375 57.214844
      L 25.34375 57.214844
      L 25.34375 65.214844
      L 23.34375 65.214844
      L 23.34375 57.214844 z
      M 111.03906 57.214844
      L 113.03906 57.214844
      L 113.03906 65.214844
      L 111.03906 65.214844
      L 111.03906 57.214844 z
      M 128.65625 57.214844
      L 130.65625 57.214844
      L 130.65625 65.214844
      L 128.65625 65.214844
      L 128.65625 57.214844 z "
   />
   <path
      id="Streep"
      fill="currentColor"
      d="m 76.95703,47.004864
      a 0.97628123,0.9762812 0 0 0 -0.933593,0.980468 0.97628123,0.97628123 0 0 0 0.978515,0.970703 0.97628123,0.97628123 0 0 0 0.974609,-0.976562
      v -0.0098 a 0.97628123,0.97628123 0 0 0 -0.984374,-0.964843 0.97628123,0.97628123 0 0 0 -0.03516,0 z
      m -2.34375,0.03711
      c -41.10536,0.01641 -73.94335953,0.425251 -73.94335953,0.9375 0,0.512249 32.83799953,0.923045 73.94335953,0.939453
      a 2.5647855,2.5647855 0 0 1 -0.177734,-0.923829 2.5647855,2.5647855 0 0 1 0.177734,-0.953124 z
      m 4.773438,0 a 2.5647855,2.5647855 0 0 1 0.177734,0.908203
      v 0.0293 a 2.5647855,2.5647855 0 0 1 -0.179687,0.939453
      c 41.106325,-0.0164 73.945315,-0.427195 73.945315,-0.939453 0,-0.512249 -32.838,-0.921092 -73.943362,-0.9375 z"
   />
</svg>
