<?xml version="1.0" encoding="UTF-8" standalone="no"?>
<svg
   xmlns:dc="http://purl.org/dc/elements/1.1/"
   xmlns:cc="http://creativecommons.org/ns#"
   xmlns:rdf="http://www.w3.org/1999/02/22-rdf-syntax-ns#"
   xmlns:svg="http://www.w3.org/2000/svg"
   xmlns="http://www.w3.org/2000/svg"
   xmlns:sodipodi="http://sodipodi.sourceforge.net/DTD/sodipodi-0.dtd"
   xmlns:inkscape="http://www.inkscape.org/namespaces/inkscape"
   inkscape:export-ydpi="9600"
   inkscape:export-xdpi="9600"
   inkscape:export-filename="D:\Gebruikers bestanden\Bureaublad\logo George Hollywood.png"
   inkscape:version="1.0 (4035a4fb49, 2020-05-01)"
   sodipodi:docname="streep.svg"
   id="svg877"
   version="1.1"
   viewBox="0 0 154 3"
   height="3"
   width="154">
  <metadata
     id="metadata883">
    <rdf:RDF>
      <cc:Work
         rdf:about="">
        <dc:format>image/svg+xml</dc:format>
        <dc:type
           rdf:resource="http://purl.org/dc/dcmitype/StillImage" />
        <dc:title>Streep George Hollywood</dc:title>
      </cc:Work>
    </rdf:RDF>
  </metadata>
  <defs
     id="defs881" />
  <sodipodi:namedview
     inkscape:current-layer="svg877"
     inkscape:window-maximized="1"
     inkscape:window-y="-6"
     inkscape:window-x="-6"
     inkscape:cy="29.077982"
     inkscape:cx="90.797361"
     inkscape:zoom="4"
     showgrid="false"
     id="namedview879"
     inkscape:window-height="1018"
     inkscape:window-width="1920"
     inkscape:pageshadow="2"
     inkscape:pageopacity="0"
     guidetolerance="10"
     gridtolerance="10"
     objecttolerance="10"
     borderopacity="1"
     bordercolor="#666666"
     pagecolor="#ffffff"
     inkscape:document-rotation="0" />
  <title
     id="title859">Streep George Hollywood</title>
  <path
     d="m 76.95703,0.52450935 a 0.97628123,0.97628123 0 0 0 -0.933593,0.98046805 0.97628123,0.97628123 0 0 0 0.978515,0.970703 0.97628123,0.97628123 0 0 0 0.974609,-0.976562 v -0.0098 a 0.97628123,0.97628123 0 0 0 -0.984374,-0.96484305 0.97628123,0.97628123 0 0 0 -0.03516,0 z m -2.34375,0.03711 c -41.10536,0.01641 -73.94335989,0.425251 -73.94335989,0.93750005 0,0.512249 32.83799989,0.923045 73.94335989,0.939453 A 2.5647855,2.5647855 0 0 1 74.435546,1.5147434 2.5647855,2.5647855 0 0 1 74.61328,0.56161935 Z m 4.773438,0 a 2.5647855,2.5647855 0 0 1 0.177734,0.90820305 v 0.0293 a 2.5647855,2.5647855 0 0 1 -0.179687,0.939453 c 41.106325,-0.0164 73.945315,-0.427195 73.945315,-0.939453 0,-0.51224905 -32.838,-0.92109205 -73.943362,-0.93750005 z"
     style="fill:#ff8000;fill-opacity:1;stroke:none;stroke-width:0.5;stroke-linecap:round;stroke-linejoin:round;stroke-miterlimit:4;stroke-dasharray:none;stroke-opacity:1"
     id="rect847" />
</svg>
