<svg
	aria-hidden="true"
	focusable="false"
	data-icon="adjust"
	class="park"
	role="img"
	xmlns="http://www.w3.org/2000/svg"
	version="1.1"
	viewBox="0 0 120 120"
	height="40px"
	weight="40px">
   <path
      fill="currentColor"
      d="M 23.520836,11.511719
      L 68.450523,11.511719
      C 81.809827,11.511824 92.052004,14.488383 99.177086,20.441406
      C 106.34886,26.347746 109.9348,34.785238 109.9349,45.753906
      C 109.9348,56.769591 106.34886,65.253957 99.177086,71.207031
      C 92.052004,77.113321 81.809827,80.066443 68.450523,80.066406
      L 50.591148,80.066406
      L 50.591148,116.48828
      L 23.520836,116.48828
      L 23.520836,11.511719
      M 50.591148,31.128906
      L 50.591148,60.449219
      L 65.567711,60.449219
      C 70.81765,60.449275 74.872334,59.183651 77.731773,56.652344
      C 80.591078,54.074281 82.020764,50.441472 82.020836,45.753906
      C 82.020764,41.066482 80.591078,37.45711 77.731773,34.925781
      C 74.872334,32.394615 70.81765,31.128992 65.567711,31.128906
      L 50.591148,31.128906"
   >
   </path>
</svg>
