<svg
	aria-hidden="true"
	focusable="false"
	data-icon="adjust"
	class="streep"
	role="img"
	xmlns="http://www.w3.org/2000/svg"
	version="1.1"
   viewBox="0 0 154 3"
	height="154px"
	weight="3px">

   <path
      fill='#ff8000'
      d="m 76.95703,0.52450935
      a 0.97628123,0.97628123 0 0 0 -0.933593,0.98046805 0.97628123,0.97628123 0 0 0 0.978515,0.970703 0.97628123,0.97628123 0 0 0 0.974609,-0.976562
      v -0.0098 a 0.97628123,0.97628123 0 0 0 -0.984374,-0.96484305 0.97628123,0.97628123 0 0 0 -0.03516,0 z
      m -2.34375,0.03711
      c -41.10536,0.01641 -73.94335989,0.425251 -73.94335989,0.93750005 0,0.512249 32.83799989,0.923045 73.94335989,0.939453
      A 2.5647855,2.5647855 0 0 1 74.435546,1.5147434 2.5647855,2.5647855 0 0 1 74.61328,0.56161935 Z
      m 4.773438,0
      a 2.5647855,2.5647855 0 0 1 0.177734,0.90820305
      v 0.0293
      a 2.5647855,2.5647855 0 0 1 -0.179687,0.939453
      c 41.106325,-0.0164 73.945315,-0.427195 73.945315,-0.939453 0,-0.51224905 -32.838,-0.92109205 -73.943362,-0.93750005 z"
   />
</svg>
