<svg
	aria-hidden="true"
	focusable="false"
	data-icon="adjust"
	class="train"
	role="img"
	xmlns="http://www.w3.org/2000/svg"
	version="1.1"
	viewBox="0 0 400 400">

	<path fill='currentColor' d="M202.667,0
		C117.333,0,32,10.667,32,85.333
		V288c0,41.173,33.493,74.667,74.667,74.667l-32,32
		v10.667
		h47.573l42.667-42.667
		h80.427
		L288,405.333
		h42.667
		v-10.667l-32-32
		c41.173,0,74.667-33.493,74.667-74.667
		V85.333C373.333,10.667,296.96,0,202.667,0z
		M106.667,320
		c-17.707,0-32-14.293-32-32
		s14.293-32,32-32s32,14.293,32,32
		S124.373,320,106.667,320z
		M181.333,170.667
		H74.667
		V85.333
		h106.667
		V170.667z
		M298.667,320
		c-17.707,0-32-14.293-32-32s14.293-32,32-32s32,14.293,32,32S316.373,320,298.667,320z
		M330.667,170.667
		H224
		V85.333
		h106.667
		V170.667z"/>

</svg>
